# xmcd CD database file
# Copyright (C) 1993-1998 Ti Kan
# 
# Track frame offsets:
#     150
#     12437
#     24060
#     36870
#     48287
#     59925
#     73895
#     84285
#     97267
#     110437
#     124640
#     136197
#     150367
#     165207
#     178225
#     190940
#     198487
#     212405
#     223555
# 
# Disc length: 3081 seconds
# 
# Revision: 1
# Processed by: cddbd v1.4b41PL1 Copyright (c) Steve Scherf et al.
# Submitted via: DiscPlay 4.0.4
# 
DISCID=040c0713
DTITLE=Ray Charles - Early Years 1974 - 1951
DYEAR=1900
DGENRE=
TTITLE0=Honey, Honey
TTITLE1=What Have I Done
TTITLE2=You'll Always Miss The Water
TTITLE3=She's On The Ball
TTITLE4=How Long
TTITLE5=Someday
TTITLE6=Ain't That Fine
TTITLE7=Don't Put All Your Dreams In Your Basket
TTITLE8=Baby Won't You Please Come Home
TTITLE9=Kissa Me Baby
TTITLE10=Guitar Blues
TTITLE11=Walkin' And Talkin'
TTITLE12=I'm Wonderin' And Wonderin'
TTITLE13=The Snow Is Falling
TTITLE14=Lonely Boy
TTITLE15=Ray's Blues
TTITLE16=Late In The Evening
TTITLE17=I'll Do Anything But Work
TTITLE18=Easy Riding Gal
EXTD=
EXTT0=
EXTT1=
EXTT2=
EXTT3=
EXTT4=
EXTT5=
EXTT6=
EXTT7=
EXTT8=
EXTT9=
EXTT10=
EXTT11=
EXTT12=
EXTT13=
EXTT14=
EXTT15=
EXTT16=
EXTT17=
EXTT18=
PLAYORDER=
